# xmcd
# 
# Track frame offsets:
#     150
#     13705
#     38189
#     56943
#     80924
#     99676
#     120371
#     141124
#     163509
#     188409
#     200292
#     219508
#     240660
# 
# Disc length: 3488
# 
# Revision: 1
# Processed by: cddbd v1.5.2PL0 Copyright (c) Steve Scherf et al.
# Submitted via: BonkEnc v1.0.8
# 
DISCID=b00d9e0d
DTITLE=Eric Breton - Jazz en Mer (Thalgo)
DYEAR=2004
DGENRE=Jazz
TTITLE0=Prélude marin
TTITLE1=Danse avec les poissons
TTITLE2=Chemin vers la détente
TTITLE3=Promenade sous-marine
TTITLE4=Bulles d'oxygène
TTITLE5=Embruns vivifiants
TTITLE6=Biorythmes
TTITLE7=Jeux d'eaux
TTITLE8=Le blues des profondeurs
TTITLE9=Reflets de lune
TTITLE10=Cheminement solitarie
TTITLE11=Senteurs iodées
TTITLE12=Retour au port
EXTD=
EXTT0=
EXTT1=
EXTT2=
EXTT3=
EXTT4=
EXTT5=
EXTT6=
EXTT7=
EXTT8=
EXTT9=
EXTT10=
EXTT11=
EXTT12=
PLAYORDER=
